<svg version="1.1" id="Layer_1" xmlns="http://www.w3.org/2000/svg" xmlns:xlink="http://www.w3.org/1999/xlink" x="0px" y="0px"
	 width="100%" viewBox="0 0 944 832" enable-background="new 0 0 944 832" xml:space="preserve">
<path fill="#000000" opacity="1.000000" stroke="none" 
	d="
M411.968750,653.342896 
	C355.144592,653.343384 298.815399,653.360168 242.486237,653.336243 
	C210.157944,653.322510 184.188293,630.707031 179.862518,598.816589 
	C179.573135,596.683228 179.660370,594.491821 179.659973,592.327393 
	C179.649628,534.498352 179.627930,476.669250 179.658844,418.840179 
	C179.676666,385.524719 207.485474,357.760620 240.888184,357.701294 
	C269.719299,357.650116 298.551666,357.563446 327.380768,357.809052 
	C332.543976,357.853058 334.014740,356.306885 333.744385,351.290131 
	C333.145752,340.182678 336.328522,329.845337 341.812927,320.308533 
	C370.466339,270.483521 399.153198,220.677399 427.978546,170.951736 
	C443.914734,143.460770 479.520020,132.370316 508.042389,146.608383 
	C523.666504,154.407776 538.526794,163.746445 553.672913,172.492416 
	C590.172668,193.568848 626.837219,214.370300 663.052246,235.926163 
	C690.540588,252.287735 700.449280,287.307434 686.027344,315.866058 
	C679.429077,328.932098 671.653625,341.414398 664.170044,354.017670 
	C660.947815,359.444305 655.031067,360.810638 649.877930,357.950409 
	C644.869690,355.170593 643.281006,349.374176 646.018066,343.604614 
	C646.801636,341.952728 647.768311,340.385681 648.684448,338.799072 
	C654.182617,329.276917 659.649780,319.736542 665.204102,310.247223 
	C675.575378,292.528625 672.249756,273.817841 660.513000,260.740662 
	C655.179443,254.797928 648.024231,251.366180 641.258423,247.454468 
	C596.260132,221.438202 551.219360,195.495361 506.230957,169.462021 
	C487.250000,158.478348 470.595734,159.002579 455.170929,171.268845 
	C450.502441,174.981400 447.329834,179.874390 444.408997,184.927582 
	C417.147034,232.091843 389.952209,279.294922 362.664032,326.444000 
	C358.615662,333.438873 355.476929,340.657501 354.474213,348.762726 
	C353.586700,355.936615 354.950378,357.672058 362.153595,357.678986 
	C370.955383,357.687500 379.757172,357.681030 389.157166,357.681030 
	C384.561157,336.965485 389.415649,320.728210 409.949768,312.448730 
	C422.495667,307.390137 437.697754,311.482910 446.613251,321.322174 
	C457.769562,333.634430 458.091339,345.189240 447.703491,367.743103 
	C452.297119,371.349274 456.937103,375.106750 460.748444,379.759644 
	C470.162262,391.252136 475.155365,404.351532 475.317932,419.228607 
	C475.396240,426.393921 475.434113,433.562469 475.298523,440.725952 
	C475.245544,443.526093 476.081909,445.317535 478.629120,446.765930 
	C494.124786,455.577148 509.428467,464.729553 524.996277,473.409332 
	C543.564819,483.762238 567.046814,477.864349 578.573914,459.728302 
	C585.984924,448.068390 592.584839,435.891022 599.476929,423.904541 
	C601.364380,420.621979 603.519653,417.658905 607.428040,416.856720 
	C611.394409,416.042664 615.102356,416.744171 617.886597,420.016968 
	C620.760864,423.395538 621.536743,427.496613 619.430115,431.201477 
	C610.383362,447.111328 602.689636,463.928772 591.077698,478.199432 
	C573.773987,499.465057 541.477600,505.678925 516.489563,492.736359 
	C504.519623,486.536499 493.045349,479.381226 481.322510,472.700958 
	C479.646362,471.745758 478.158997,470.252686 475.941650,470.353882 
	C474.845825,472.271667 475.358612,474.303772 475.356750,476.235291 
	C475.320618,513.899170 475.341431,551.563049 475.324249,589.226929 
	C475.309204,622.237976 454.449188,647.138794 421.923553,652.854858 
	C418.837036,653.397217 415.620117,653.197388 411.968750,653.342896 
M439.380157,622.889648 
	C442.003632,620.794922 444.120300,618.242859 446.186493,615.612183 
	C452.948181,607.003296 454.539215,596.890381 454.552551,586.420227 
	C454.618744,534.445679 454.578522,482.470917 454.584381,430.496246 
	C454.584961,425.335297 454.432648,420.206085 453.865173,415.050507 
	C451.982910,397.950409 438.657196,382.788849 421.953674,379.585632 
	C416.082458,378.459747 410.061890,378.572998 404.047546,378.579254 
	C350.409393,378.635193 296.769958,378.280365 243.133240,378.538239 
	C217.631226,378.660858 200.356094,396.721863 200.341446,422.111267 
	C200.309143,478.084045 200.267960,534.056946 200.363022,590.029541 
	C200.404861,614.662720 218.425797,632.606689 243.048248,632.636658 
	C299.020935,632.704834 354.993835,632.700256 410.966492,632.619568 
	C421.197754,632.604797 430.740845,630.033020 439.380157,622.889648 
M408.843506,347.552368 
	C409.345398,348.781250 409.699982,350.098267 410.373749,351.224304 
	C413.968567,357.232178 421.663330,359.219421 427.761688,355.789612 
	C434.038086,352.259674 436.281372,344.342285 432.766846,338.124634 
	C429.930634,333.106873 423.442871,330.327332 418.278137,331.917236 
	C411.512756,333.999878 408.126129,339.210358 408.843506,347.552368 
z"/>
<path fill="#000000" opacity="1.000000" stroke="none" 
	d="
M526.212524,288.489075 
	C540.111267,295.042389 547.336182,305.907532 547.105408,320.699005 
	C546.887695,334.651550 539.818848,345.198761 527.042603,351.046753 
	C514.235291,356.908997 501.847015,355.125000 491.089355,346.108246 
	C480.327728,337.088104 476.491211,325.153503 479.915680,311.552307 
	C483.299896,298.110962 492.323608,289.953308 505.804230,286.599762 
	C512.742188,284.873810 519.320190,286.038422 526.212524,288.489075 
M501.480042,325.750092 
	C501.932465,326.444183 502.321350,327.191040 502.847290,327.824036 
	C507.221191,333.088715 513.703796,334.382416 519.360901,331.149872 
	C524.741150,328.075531 527.210022,321.522766 525.183960,315.694427 
	C523.116272,309.746399 517.031921,306.298340 510.469055,307.355347 
	C502.676117,308.610474 498.642609,316.280182 501.480042,325.750092 
z"/>
<path fill="#000000" opacity="1.000000" stroke="none" 
	d="
M587.191650,324.977539 
	C573.912964,316.369781 568.526428,304.133942 571.003357,289.258148 
	C573.332031,275.272186 582.155884,265.827942 596.072327,262.520111 
	C609.294495,259.377350 621.334717,262.526245 630.356873,273.190094 
	C639.427124,283.910889 641.179565,296.355011 635.642273,309.122620 
	C630.088867,321.927277 619.953796,328.901611 605.673035,329.411011 
	C599.184509,329.642456 593.127075,328.449066 587.191650,324.977539 
M611.558228,306.187836 
	C617.612366,301.176422 619.138733,295.499756 616.035583,289.536102 
	C613.235535,284.154938 606.875122,281.290833 601.324402,282.911652 
	C593.732056,285.128571 589.668335,292.602020 592.239685,299.618896 
	C595.118774,307.475555 602.487488,310.221252 611.558228,306.187836 
z"/>
<path fill="#000000" opacity="1.000000" stroke="none" 
	d="
M510.943848,432.974457 
	C495.836914,411.909546 504.845184,384.970581 528.844727,378.473877 
	C550.229553,372.685028 570.873718,388.799622 571.508606,410.932007 
	C571.919006,425.237579 562.101624,438.962341 549.093323,443.645691 
	C535.599915,448.503693 521.204102,444.680664 510.943848,432.974457 
M550.361877,409.199829 
	C549.895142,407.956787 549.552490,406.648804 548.941101,405.481506 
	C545.555237,399.016022 537.811157,396.638977 531.441284,400.050507 
	C525.020935,403.489136 522.664185,411.169464 526.063477,417.576416 
	C528.621460,422.397644 534.628357,425.470764 539.387146,424.392792 
	C546.530701,422.774536 550.467712,417.677582 550.361877,409.199829 
z"/>
<path fill="#000000" opacity="1.000000" stroke="none" 
	d="
M519.361694,213.908218 
	C527.893494,235.083771 517.435181,256.415314 496.232513,261.729370 
	C475.913147,266.822052 455.450745,251.127823 454.515686,230.523590 
	C453.629150,210.988861 466.924225,198.669678 480.266266,195.299301 
	C495.483032,191.455322 510.952515,198.598343 519.361694,213.908218 
M498.384247,236.839813 
	C499.130310,235.548859 500.050903,234.326706 500.591949,232.954895 
	C502.787354,227.388214 500.640076,220.939499 495.604065,217.628143 
	C490.243652,214.103500 483.742371,214.831482 479.187744,219.466400 
	C474.764709,223.967407 474.121368,230.274368 477.553070,235.491699 
	C482.206970,242.567123 490.245178,243.310883 498.384247,236.839813 
z"/>
<path fill="#000000" opacity="1.000000" stroke="none" 
	d="
M640.745728,381.372162 
	C643.767578,385.863037 644.040649,390.049225 640.844543,394.129669 
	C638.137390,397.585876 634.515076,399.026184 630.250427,397.982208 
	C625.823792,396.898621 622.975830,393.973511 622.310303,389.384888 
	C621.653259,384.854340 623.334961,381.202606 627.314087,378.846954 
	C631.333435,376.467529 636.143982,377.351044 640.745728,381.372162 
z"/>
<path fill="#000000" opacity="1.000000" stroke="none" 
	d="
M408.346100,469.600159 
	C388.426758,477.423065 367.990143,468.254883 361.918213,449.099457 
	C355.780853,429.737701 367.145294,409.992279 387.138123,405.280609 
	C403.182220,401.499512 420.325012,410.855347 426.165405,426.580017 
	C432.440704,443.475616 425.338654,460.886475 408.346100,469.600159 
M405.264893,445.640686 
	C408.524139,438.651337 407.554871,432.688171 402.501953,428.642914 
	C397.730133,424.822723 391.043762,424.742462 386.424042,428.449951 
	C380.315796,433.352081 379.621796,441.717010 384.854492,447.367401 
	C390.520416,453.485596 398.326752,453.041595 405.264893,445.640686 
z"/>
<path fill="#000000" opacity="1.000000" stroke="none" 
	d="
M366.117065,553.240967 
	C376.442139,540.002869 390.890076,535.306396 405.275391,540.281372 
	C419.654846,545.254272 428.504730,558.047668 428.313995,573.617188 
	C428.095825,591.433411 412.205597,607.648438 391.721222,606.434387 
	C374.256683,605.399231 359.547760,589.424316 360.397400,571.444824 
	C360.703003,564.977966 362.393829,558.992798 366.117065,553.240967 
M406.541138,576.947998 
	C408.451263,571.067932 407.026672,566.071533 402.199677,562.292480 
	C397.886841,558.915894 393.066193,558.360107 388.227936,561.183777 
	C383.553925,563.911682 381.063141,568.035095 381.390289,573.563721 
	C381.719238,579.123230 386.110352,583.926392 391.997498,585.341370 
	C397.245148,586.602661 402.585236,583.728088 406.541138,576.947998 
z"/>
<path fill="#000000" opacity="1.000000" stroke="none" 
	d="
M352.939758,483.111572 
	C369.566345,504.287079 359.951294,533.333374 334.526917,538.734375 
	C321.302521,541.543701 309.553986,537.757263 301.017761,526.999023 
	C292.167053,515.844543 290.823853,503.218414 296.998291,490.413849 
	C302.846344,478.286194 312.985565,472.107117 326.538483,471.664612 
	C337.016541,471.322479 345.689453,475.117126 352.939758,483.111572 
M324.434204,518.193176 
	C331.516907,519.184326 337.184265,516.244690 339.429993,510.414948 
	C341.594757,504.795227 339.936249,498.699158 335.211029,495.316193 
	C330.776886,492.141693 326.016846,491.509674 321.189209,494.271881 
	C316.647797,496.870300 314.090057,500.970337 314.451538,506.205383 
	C314.852448,512.010681 317.999084,516.090027 324.434204,518.193176 
z"/>
<path fill="#000000" opacity="1.000000" stroke="none" 
	d="
M262.812744,404.681702 
	C279.738770,406.175262 293.503357,419.781067 294.285339,435.340363 
	C295.198853,453.516541 283.924622,469.196991 267.277527,471.991119 
	C253.838577,474.246704 242.054199,470.605499 233.599533,459.403015 
	C224.985992,447.990143 223.892029,435.307587 230.375992,422.764374 
	C236.584976,410.753082 247.090683,404.634521 260.854431,404.673706 
	C261.353577,404.675110 261.852722,404.675873 262.812744,404.681702 
M268.741211,428.711548 
	C262.765869,424.801117 257.837158,424.580750 253.031387,428.009033 
	C248.712082,431.090363 246.503220,436.863220 247.835709,441.588104 
	C249.373291,447.040192 253.848129,451.036285 259.061432,451.612762 
	C264.098480,452.169739 269.531525,449.225861 271.906860,444.652618 
	C274.788422,439.104675 274.026520,434.614044 268.741211,428.711548 
z"/>
<path fill="#000000" opacity="1.000000" stroke="none" 
	d="
M227.742828,563.186707 
	C233.891113,545.896362 246.180710,537.745789 264.160461,538.679626 
	C277.630463,539.379211 290.328674,550.513000 293.534180,565.237854 
	C296.478119,578.761230 292.467651,590.414856 281.578857,599.007996 
	C270.923584,607.416748 258.810211,609.076355 246.424759,603.329956 
	C233.936340,597.535767 227.117783,587.467163 226.677109,573.468201 
	C226.572586,570.147522 226.549179,566.809021 227.742828,563.186707 
M247.377365,572.507324 
	C247.308472,574.570007 247.993698,576.476135 248.915466,578.228882 
	C251.461502,583.069824 255.638474,585.760681 261.034912,585.521118 
	C266.181396,585.292419 270.186768,582.551331 272.319916,577.703674 
	C274.578186,572.571655 273.548920,567.310974 269.652985,563.492493 
	C266.381439,560.286011 262.509705,558.597656 257.871033,559.789612 
	C251.709106,561.373047 248.367538,565.536499 247.377365,572.507324 
z"/>
</svg>